<svg width="180" height="39" viewBox="0 0 180 39" fill="none" xmlns="http://www.w3.org/2000/svg">
<path d="M172.11 27.3006C171.017 27.3006 169.993 27.0903 169.038 26.6697C168.083 26.2492 167.246 25.6661 166.525 24.9206C165.804 24.1687 165.239 23.2989 164.828 22.3112C164.423 21.3172 164.221 20.253 164.221 19.1188C164.221 17.9845 164.423 16.9236 164.828 15.9359C165.239 14.9418 165.804 14.072 166.525 13.3265C167.246 12.5746 168.083 11.9884 169.038 11.5678C169.993 11.1472 171.017 10.937 172.11 10.937C173.204 10.937 174.228 11.1472 175.183 11.5678C176.137 11.9884 176.975 12.5746 177.696 13.3265C178.416 14.072 178.979 14.9418 179.384 15.9359C179.795 16.9236 180 17.9845 180 19.1188C180 20.253 179.795 21.3172 179.384 22.3112C178.979 23.2989 178.416 24.1687 177.696 24.9206C176.975 25.6661 176.137 26.2492 175.183 26.6697C174.228 27.0903 173.204 27.3006 172.11 27.3006ZM172.101 24.3184C172.771 24.3184 173.384 24.191 173.941 23.9361C174.497 23.6812 174.98 23.3212 175.391 22.856C175.802 22.3909 176.122 21.8429 176.349 21.212C176.577 20.5748 176.691 19.8771 176.691 19.1188C176.691 18.3605 176.577 17.6659 176.349 17.0351C176.122 16.3979 175.802 15.8467 175.391 15.3815C174.98 14.9163 174.497 14.5563 173.941 14.3014C173.384 14.0466 172.771 13.9191 172.101 13.9191C171.443 13.9191 170.833 14.0466 170.271 14.3014C169.714 14.5563 169.231 14.9163 168.82 15.3815C168.409 15.8467 168.09 16.3979 167.862 17.0351C167.641 17.6659 167.53 18.3605 167.53 19.1188C167.53 19.8771 167.641 20.5748 167.862 21.212C168.09 21.8429 168.409 22.3909 168.82 22.856C169.231 23.3212 169.714 23.6812 170.271 23.9361C170.833 24.191 171.443 24.3184 172.101 24.3184Z" fill="#272A33"/>
<path d="M153.223 27.0272V11.248H158.966C159.797 11.248 160.521 11.4208 161.138 11.7664C161.756 12.1121 162.234 12.6005 162.574 13.2317C162.914 13.8628 163.084 14.6067 163.084 15.4633V15.7338C163.084 16.6805 162.895 17.447 162.518 18.0331C162.14 18.6191 161.674 19.0474 161.12 19.3179V19.7237C161.623 19.7537 162.014 19.9641 162.291 20.3548C162.568 20.7305 162.707 21.234 162.707 21.8651V27.0272H160.213V22.2934C160.213 21.9328 160.131 21.6397 159.967 21.4143C159.816 21.1889 159.558 21.0762 159.193 21.0762H155.716V27.0272H153.223ZM155.716 18.3712H158.701C159.293 18.3712 159.753 18.1833 160.081 17.8076C160.421 17.4169 160.591 16.906 160.591 16.2748V16.0494C160.591 15.4182 160.427 14.9148 160.099 14.5391C159.772 14.1484 159.306 13.953 158.701 13.953H155.716V18.3712Z" fill="#272A33"/>
<path d="M141.17 27.0272V11.248H146.717C147.564 11.248 148.309 11.4509 148.951 11.8566C149.606 12.2473 150.113 12.8034 150.473 13.5247C150.845 14.246 151.031 15.1026 151.031 16.0945V16.41C151.031 17.3869 150.839 18.2434 150.453 18.9798C150.081 19.7011 149.567 20.2647 148.912 20.6704C148.27 21.0612 147.539 21.2565 146.717 21.2565H143.712V27.0272H141.17ZM143.712 18.5515H146.466C147.07 18.5515 147.558 18.3561 147.93 17.9654C148.303 17.5747 148.489 17.0412 148.489 16.365V16.1395C148.489 15.4633 148.303 14.9298 147.93 14.5391C147.558 14.1484 147.07 13.953 146.466 13.953H143.712V18.5515Z" fill="#272A33"/>
<path d="M134.232 27.1095C133.189 27.1095 132.268 26.8948 131.469 26.4653C130.67 26.0358 130.046 25.4212 129.595 24.6214C129.144 23.8217 128.919 22.8591 128.919 21.7335V21.1115H131.43V21.7335C131.43 22.6665 131.682 23.37 132.184 23.8439C132.686 24.303 133.369 24.5326 134.232 24.5326C135.108 24.5326 135.758 24.3327 136.183 23.9328C136.621 23.5329 136.84 23.022 136.84 22.3999C136.84 21.9704 136.731 21.6224 136.512 21.3558C136.306 21.0892 135.997 20.8745 135.584 20.7116C135.185 20.5339 134.696 20.371 134.116 20.2229L133.672 20.1118C132.744 19.8748 131.946 19.5786 131.276 19.2232C130.619 18.8529 130.11 18.3716 129.75 17.7792C129.402 17.1868 129.228 16.4167 129.228 15.4688C129.228 14.521 129.421 13.7138 129.807 13.0474C130.207 12.3661 130.761 11.8478 131.469 11.4923C132.19 11.1221 133.034 10.937 134 10.937C134.966 10.937 135.823 11.1295 136.57 11.5145C137.33 11.8848 137.922 12.4476 138.347 13.2029C138.785 13.9434 139.004 14.8764 139.004 16.002V16.6684H136.492V16.002C136.492 15.4096 136.389 14.9357 136.183 14.5802C135.99 14.21 135.707 13.9434 135.333 13.7805C134.96 13.6028 134.515 13.5139 134 13.5139C133.227 13.5139 132.654 13.6842 132.281 14.0248C131.92 14.3507 131.74 14.8024 131.74 15.38C131.74 15.765 131.823 16.0909 131.991 16.3574C132.171 16.624 132.435 16.8462 132.783 17.0239C133.131 17.2016 133.575 17.3571 134.116 17.4904L134.56 17.6015C135.526 17.8384 136.364 18.142 137.072 18.5123C137.793 18.8825 138.354 19.3713 138.753 19.9785C139.152 20.5857 139.352 21.3632 139.352 22.3111C139.352 23.2589 139.139 24.0957 138.714 24.8214C138.302 25.5323 137.71 26.0951 136.937 26.5097C136.177 26.9096 135.275 27.1095 134.232 27.1095Z" fill="#272A33"/>
<path d="M120.937 27.0272V13.953H117.005V11.248H127.414V13.953H123.482V27.0272H120.937Z" fill="#272A33"/>
<path d="M106.047 27.0272V11.248H111.791C112.622 11.248 113.346 11.4208 113.963 11.7664C114.58 12.1121 115.059 12.6005 115.399 13.2317C115.739 13.8628 115.909 14.6067 115.909 15.4633V15.7338C115.909 16.6805 115.72 17.447 115.342 18.0331C114.964 18.6191 114.498 19.0474 113.944 19.3179V19.7237C114.448 19.7537 114.839 19.9641 115.116 20.3548C115.393 20.7305 115.531 21.234 115.531 21.8651V27.0272H113.038V22.2934C113.038 21.9328 112.956 21.6397 112.792 21.4143C112.641 21.1889 112.383 21.0762 112.017 21.0762H108.541V27.0272H106.047ZM108.541 18.3712H111.526C112.118 18.3712 112.578 18.1833 112.905 17.8076C113.245 17.4169 113.415 16.906 113.415 16.2748V16.0494C113.415 15.4182 113.252 14.9148 112.924 14.5391C112.597 14.1484 112.131 13.953 111.526 13.953H108.541V18.3712Z" fill="#272A33"/>
<path d="M91.7297 27.0272L95.2698 11.248H99.6949L103.235 27.0272H100.618L99.8873 23.5558H95.0774L94.3463 27.0272H91.7297ZM95.6738 20.8057H99.2909L97.6555 13.119H97.3092L95.6738 20.8057Z" fill="#272A33"/>
<path d="M82.4524 27.0272V11.248H87.9996C88.8471 11.248 89.5918 11.4509 90.2339 11.8566C90.8888 12.2473 91.396 12.8034 91.7555 13.5247C92.1279 14.246 92.3141 15.1026 92.3141 16.0945V16.41C92.3141 17.3869 92.1215 18.2434 91.7363 18.9798C91.3639 19.7011 90.8502 20.2647 90.1954 20.6704C89.5533 21.0612 88.8214 21.2565 87.9996 21.2565H84.9949V27.0272H82.4524ZM84.9949 18.5515H87.7492C88.3527 18.5515 88.8407 18.3561 89.213 17.9654C89.5854 17.5747 89.7716 17.0412 89.7716 16.365V16.1395C89.7716 15.4633 89.5854 14.9298 89.213 14.5391C88.8407 14.1484 88.3527 13.953 87.7492 13.953H84.9949V18.5515Z" fill="#272A33"/>
<path d="M39.4902 5.50977H5.50977V22.041H39.4902V27.5508H0V0H39.4902V5.50977Z" fill="#222222"/>
<path d="M49.5917 38.5712H11.0204V33.0614H44.0819V16.5302H11.0204V11.0204H49.5917V38.5712Z" fill="#EE753E"/>
<path d="M79.4805 14.4438H63.1172V17.3657H79.4805V27.3002H59.6104V23.7944H75.9737V20.8725H59.6104V10.937H79.4805V14.4438Z" fill="#272A33"/>
</svg>
